<svg version="1.1" id="Layer_1" xmlns="http://www.w3.org/2000/svg" xmlns:xlink="http://www.w3.org/1999/xlink" x="0px" y="0px"
	 width="100%" viewBox="0 0 500 500" enable-background="new 0 0 500 500" xml:space="preserve">
<path fill="#000000" opacity="1.000000" stroke="none" 
	d="
M285.000000,501.000000 
	C190.000015,501.000000 95.500046,501.000000 1.000051,501.000000 
	C1.000034,334.333405 1.000034,167.666794 1.000017,1.000140 
	C167.666565,1.000093 334.333130,1.000093 500.999756,1.000047 
	C500.999847,167.666519 500.999847,334.333038 500.999939,500.999786 
	C429.166656,501.000000 357.333344,501.000000 285.000000,501.000000 
M268.761627,19.226532 
	C256.814728,19.207468 244.867844,19.188402 232.096252,19.044003 
	C230.687469,19.364046 229.291504,19.764791 227.867813,19.991114 
	C218.224518,21.524096 208.443787,22.451094 198.955124,24.645092 
	C178.306702,29.419498 158.557510,36.679459 139.881165,46.937511 
	C122.644218,56.404972 106.689812,67.633514 92.575081,81.185608 
	C82.854752,90.518478 73.774429,100.672417 65.473564,111.292236 
	C53.611431,126.468201 44.304333,143.235565 36.824566,161.106171 
	C30.234690,176.850693 25.362865,193.011093 22.193888,209.699005 
	C20.739857,217.355957 20.153385,225.177658 19.010019,233.867950 
	C19.064293,244.599503 19.118568,255.331039 19.025282,266.913879 
	C19.678558,271.391724 20.150368,275.905121 21.019554,280.340668 
	C23.505363,293.025970 25.653622,305.807129 28.850063,318.316711 
	C33.982090,338.401337 43.279472,356.805359 54.204128,374.271667 
	C59.680546,383.027344 66.637398,390.857086 73.190979,399.730103 
	C82.094528,408.951843 90.283760,419.033844 100.086159,427.173065 
	C111.798370,436.898132 124.400513,445.791901 137.512558,453.528229 
	C153.043091,462.691498 169.846481,469.309174 187.344025,474.242889 
	C204.260361,479.012695 221.422058,481.965668 238.868362,482.843109 
	C255.198090,483.664459 271.518188,482.762909 287.742371,480.108734 
	C308.537415,476.706787 328.488983,470.662994 347.653076,462.022400 
	C370.698029,451.632019 391.361481,437.522125 409.928864,420.473053 
	C422.177979,409.225494 432.558563,396.269867 442.092377,382.615509 
	C456.768250,361.596710 467.344452,338.676300 474.386658,314.105957 
	C479.355042,296.771240 482.486023,279.030518 482.811157,261.019135 
	C483.033905,248.681213 482.418884,236.214432 480.799133,223.987991 
	C479.079865,211.010971 476.181519,198.136536 472.983612,185.422150 
	C468.656494,168.218124 461.080994,152.293121 452.470245,136.797897 
	C444.239868,121.987144 434.495819,108.243668 423.113556,95.834549 
	C414.894501,86.873962 405.660309,78.751221 396.298187,70.951797 
	C376.765564,54.679466 355.028870,42.031734 330.820770,34.023445 
	C319.682220,30.338690 308.288605,27.424906 296.172302,24.019861 
	C287.173218,22.690945 278.174164,21.362028 268.761627,19.226532 
z"/>
<path fill="#53BED9" opacity="1.000000" stroke="none" 
	d="
M297.010651,24.161522 
	C308.288605,27.424906 319.682220,30.338690 330.820770,34.023445 
	C355.028870,42.031734 376.765564,54.679466 396.298187,70.951797 
	C405.660309,78.751221 414.894501,86.873962 423.113556,95.834549 
	C434.495819,108.243668 444.239868,121.987144 452.470245,136.797897 
	C461.080994,152.293121 468.656494,168.218124 472.983612,185.422150 
	C476.181519,198.136536 479.079865,211.010971 480.799133,223.987991 
	C482.418884,236.214432 483.033905,248.681213 482.811157,261.019135 
	C482.486023,279.030518 479.355042,296.771240 474.386658,314.105957 
	C467.344452,338.676300 456.768250,361.596710 442.092377,382.615509 
	C432.558563,396.269867 422.177979,409.225494 409.928864,420.473053 
	C391.361481,437.522125 370.698029,451.632019 347.653076,462.022400 
	C328.488983,470.662994 308.537415,476.706787 287.742371,480.108734 
	C271.518188,482.762909 255.198090,483.664459 238.868362,482.843109 
	C221.422058,481.965668 204.260361,479.012695 187.344025,474.242889 
	C169.846481,469.309174 153.043091,462.691498 137.512558,453.528229 
	C124.400513,445.791901 111.798370,436.898132 100.086159,427.173065 
	C90.283760,419.033844 82.094528,408.951843 73.332214,399.187622 
	C73.509262,397.858459 73.688065,397.047333 73.558517,396.288849 
	C72.396988,389.487885 70.132195,382.690857 70.166321,375.902618 
	C70.300865,349.141449 95.767532,327.730865 123.677650,332.524292 
	C129.618423,333.544617 135.301483,336.065399 141.070511,337.911133 
	C141.037750,337.927338 141.012268,337.858887 141.139542,338.122437 
	C141.789108,338.601562 142.311401,338.817200 142.984558,339.337372 
	C150.433197,346.614441 157.079681,354.492889 165.195480,360.327576 
	C175.088882,367.440247 185.904999,373.477386 196.886734,378.818634 
	C212.571564,386.447357 229.569260,389.654968 246.958282,389.889618 
	C254.636826,389.993286 262.330444,388.634491 270.024261,388.029541 
	C283.300720,386.985657 295.942535,383.203552 307.773987,377.502838 
	C328.677734,367.430908 346.582794,353.530060 360.849152,334.811035 
	C379.720642,310.049530 389.212372,282.166321 389.534027,251.392303 
	C389.714844,234.089355 386.536316,216.978851 379.906830,200.774536 
	C374.820618,188.342484 368.723938,176.370010 359.894012,166.184174 
	C352.905334,158.122314 345.705566,150.014465 337.457153,143.338516 
	C329.331573,136.761993 320.155731,131.161667 310.730286,126.601364 
	C300.934662,121.861992 290.288239,118.881218 279.819702,114.837387 
	C276.204346,112.563049 272.422150,111.017746 269.423096,108.528786 
	C254.680634,96.293816 247.972992,80.628098 252.203415,61.672005 
	C256.262421,43.483929 267.862549,31.743711 286.024017,26.830528 
	C289.660767,25.846682 293.347137,25.046425 297.010651,24.161522 
z"/>
<path fill="#7BE7EA" opacity="1.000000" stroke="none" 
	d="
M296.591492,24.090691 
	C293.347137,25.046425 289.660767,25.846682 286.024017,26.830528 
	C267.862549,31.743711 256.262421,43.483929 252.203415,61.672005 
	C247.972992,80.628098 254.680634,96.293816 269.423096,108.528786 
	C272.422150,111.017746 276.204346,112.563049 279.384399,114.767334 
	C274.741486,114.260048 270.339691,113.528801 265.595825,112.579597 
	C255.850754,112.513290 246.447800,112.664948 236.630005,112.905609 
	C231.727966,113.695847 227.144821,114.027458 222.770508,115.163338 
	C205.383652,119.678200 188.611832,125.653015 173.647781,136.008698 
	C159.017578,146.133347 146.764740,158.645477 136.080933,172.729980 
	C129.936722,180.829895 125.811783,190.064514 122.084190,199.507080 
	C115.740982,215.575424 112.344627,232.283859 112.189140,249.448013 
	C112.105309,258.702026 113.617813,268.033203 115.071899,277.224884 
	C117.796402,294.447266 124.396545,310.272736 133.527817,325.082764 
	C136.131210,329.305237 138.582321,333.621582 141.103271,337.894897 
	C135.301483,336.065399 129.618423,333.544617 123.677650,332.524292 
	C95.767532,327.730865 70.300865,349.141449 70.166321,375.902618 
	C70.132195,382.690857 72.396988,389.487885 73.558517,396.288849 
	C73.688065,397.047333 73.509262,397.858459 73.199081,398.875366 
	C66.637398,390.857086 59.680546,383.027344 54.204128,374.271667 
	C43.279472,356.805359 33.982090,338.401337 28.850063,318.316711 
	C25.653622,305.807129 23.505363,293.025970 21.019554,280.340668 
	C20.150368,275.905121 19.678558,271.391724 19.375566,266.166138 
	C19.825968,257.319855 20.004696,249.221054 19.982391,241.122803 
	C19.974863,238.389359 19.457727,235.657318 19.173492,232.924637 
	C20.153385,225.177658 20.739857,217.355957 22.193888,209.699005 
	C25.362865,193.011093 30.234690,176.850693 36.824566,161.106171 
	C44.304333,143.235565 53.611431,126.468201 65.473564,111.292236 
	C73.774429,100.672417 82.854752,90.518478 92.575081,81.185608 
	C106.689812,67.633514 122.644218,56.404972 139.881165,46.937511 
	C158.557510,36.679459 178.306702,29.419498 198.955124,24.645092 
	C208.443787,22.451094 218.224518,21.524096 227.867813,19.991114 
	C229.291504,19.764791 230.687469,19.364046 232.831329,19.385159 
	C245.435974,19.828581 257.305511,19.930847 269.175079,20.033113 
	C278.174164,21.362028 287.173218,22.690945 296.591492,24.090691 
z"/>
<path fill="#CCFEFE" opacity="1.000000" stroke="none" 
	d="
M268.968353,19.629822 
	C257.305511,19.930847 245.435974,19.828581 233.243683,19.447826 
	C244.867844,19.188402 256.814728,19.207468 268.968353,19.629822 
z"/>
<path fill="#D1FFFF" opacity="1.000000" stroke="none" 
	d="
M19.091755,233.396301 
	C19.457727,235.657318 19.974863,238.389359 19.982391,241.122803 
	C20.004696,249.221054 19.825968,257.319855 19.449348,265.740509 
	C19.118568,255.331039 19.064293,244.599503 19.091755,233.396301 
z"/>
<path fill="#000000" opacity="1.000000" stroke="none" 
	d="
M265.937927,112.797562 
	C270.339691,113.528801 274.741486,114.260048 279.578552,115.061356 
	C290.288239,118.881218 300.934662,121.861992 310.730286,126.601364 
	C320.155731,131.161667 329.331573,136.761993 337.457153,143.338516 
	C345.705566,150.014465 352.905334,158.122314 359.894012,166.184174 
	C368.723938,176.370010 374.820618,188.342484 379.906830,200.774536 
	C386.536316,216.978851 389.714844,234.089355 389.534027,251.392303 
	C389.212372,282.166321 379.720642,310.049530 360.849152,334.811035 
	C346.582794,353.530060 328.677734,367.430908 307.773987,377.502838 
	C295.942535,383.203552 283.300720,386.985657 270.024261,388.029541 
	C262.330444,388.634491 254.636826,389.993286 246.958282,389.889618 
	C229.569260,389.654968 212.571564,386.447357 196.886734,378.818634 
	C185.904999,373.477386 175.088882,367.440247 165.195480,360.327576 
	C157.079681,354.492889 150.433197,346.614441 142.987183,339.013092 
	C142.230057,338.209137 141.621170,338.033997 141.012268,337.858887 
	C141.012268,337.858887 141.037750,337.927338 141.070511,337.911133 
	C138.582321,333.621582 136.131210,329.305237 133.527817,325.082764 
	C124.396545,310.272736 117.796402,294.447266 115.071899,277.224884 
	C113.617813,268.033203 112.105309,258.702026 112.189140,249.448013 
	C112.344627,232.283859 115.740982,215.575424 122.084190,199.507080 
	C125.811783,190.064514 129.936722,180.829895 136.080933,172.729980 
	C146.764740,158.645477 159.017578,146.133347 173.647781,136.008698 
	C188.611832,125.653015 205.383652,119.678200 222.770508,115.163338 
	C227.144821,114.027458 231.727966,113.695847 237.091980,112.971786 
	C247.291855,112.898476 256.614899,112.848022 265.937927,112.797562 
z"/>
<path fill="#7BE7EA" opacity="1.000000" stroke="none" 
	d="
M141.139542,338.122406 
	C141.621170,338.033997 142.230057,338.209137 142.836319,338.708557 
	C142.311401,338.817200 141.789108,338.601562 141.139542,338.122406 
z"/>
<path fill="#CAFBFC" opacity="1.000000" stroke="none" 
	d="
M265.595825,112.579605 
	C256.614899,112.848022 247.291855,112.898476 237.506836,112.882767 
	C246.447800,112.664948 255.850754,112.513290 265.595825,112.579605 
z"/>
</svg>